<?xml version="1.0" encoding="UTF-8"?>
<svg version="1.1" viewBox="0 0 114.7 125.58" xml:space="preserve" xmlns="http://www.w3.org/2000/svg">
    <style type="text/css">
	.stt0{fill:none;}
	.stt1{fill:#F5BF58;}
	.stt2{fill:#FFFFFF;}
	.stt3{fill:#4A4A89;}
	.stt4{fill:#24316A;}
	.stt5{fill:#9899C6;}
	.stt6{fill:#515CA2;}
	.stt7{fill:#2C3779;}
	.stt8{fill:#26316D;}
	.stt9{fill:#FCC40F;}
	.stt10{display:none;}
	.stt11{display:inline;}
	.stt12{display:inline;fill:#FFFFFF;sttroke:#1A171B;}
</style>
    <g transform="translate(-388.5 -27.728)"><path class="stt3" d="m415.6 60c-15.5 8.2-26.9 22-27.1 34.9 0.2 15.4 16.2 31.9 36.2 38.9-1.7-12.2-9-61.7-9.1-73.8z" fill="#4a4a89"/>
        <path class="stt4"
              d="m471.3 71.3c-14.1-4.7-30.6-1.3-42.2 10.1-4 4.1-7 8.8-9 13.7 9.8 13.5 28.2 23.1 44.9 23.1 2.4 0 4.7-0.2 6.9-0.5 3.9-6.4 6.3-14.1 6.3-22.8 0-9-2.6-17.1-6.9-23.6z"
              fill="#24316a"/>
        <path class="stt5"
              d="m471.1 71.5c5.6 1.8 8.4 6 12.8 10.3 4.8 4.8 11.1 10.3 13.7 17.5 3.6-6.8 5.6-15.2 5.6-25 0-27.2-12.8-57.6-54.4-42.6-20.6 7.5-29.5 18.8-33.2 28.3 4.5-2.4 9.9-2.5 14.9-3.8 15.2-4 31.4 1.3 40.6 15.3z"
              fill="#9899c6"/>
        <path class="stt6"
              d="m471.7 117.5c-11.3 13.9-26 21.8-41.4 17.6-1.8-0.5-3.8-0.7-5.5-1.3 1.2 1.6 2.4 3.1 3.9 4.5 15.2 15.2 47.3 21.7 63.4 5.8 10.8-11 11.3-29.4 5.6-44.8-5.4 10.1-15.9 14.9-26 18.2z"
              fill="#515ca2"/>
        <path class="stt7"
              d="m471.1 71.5c4.2 6.5 6.8 14.4 6.8 23.4 0 8.6-2.4 16.3-6.3 22.6 11.6-1.8 20.6-8.1 26-18.2-2.6-7.2-6.6-13.7-11.4-18.6-4.4-4.3-9.5-7.3-15.1-9.2z"
              fill="#2c3779"/>
        <path class="stt7"
              d="m413.5 77.4c0.4 6.3 3 12.3 6.9 17.8 2-4.9 5-9.6 9-13.6 11.5-11.3 27.8-14.6 41.8-10-9.2-14.1-26.1-21.2-41.2-17.1-5 1.3-9.8 3.2-14.3 5.6-3.8 9.5-2.2 17.3-2.2 17.3z"
              fill="#2c3779"/>
        <path class="stt7"
              d="m471.7 117.5c-2.2 0.3-4.4 0.5-6.8 0.5-16.6 0-34.8-9.5-44.5-22.9-5.2 12.8-3.8 27.6 4.4 38.8 1.7 0.6 3.5 1.2 5.2 1.6 15.4 4.2 32.6-3.3 41.7-18z"
              fill="#2c3779"/>
        <path class="stt9"
              d="m454.5 106.2 10.9 1.3c-1.7 6.4-4.9 11.3-9.5 14.8s-10.6 5.3-17.8 5.3c-9.1 0-16.3-2.8-21.6-8.4s-8-13.5-8-23.6c0-10.5 2.7-18.6 8.1-24.4s12.4-8.7 21-8.7c8.3 0 15.1 2.8 20.4 8.5s7.9 13.6 7.9 23.9c0 0.6 0 1.6-0.1 2.8h-46.4c0.4 6.8 2.3 12.1 5.8 15.7s7.8 5.4 13 5.4c3.9 0 7.2-1 9.9-3 2.6-1.9 4.8-5.2 6.4-9.6zm-34.6-17h34.7c-0.5-5.2-1.8-9.2-4-11.8-3.4-4.1-7.7-6.1-13.1-6.1-4.8 0-8.9 1.6-12.2 4.9-3.2 3.2-5.1 7.5-5.4 13z"
              fill="#fcc40f"/></g>
    <g class="stt10" transform="translate(-388.5 -27.728)" display="none"><g class="stt11" display="inline" fill="#24316a"><path class="stt4" d="m47.4 167.4c1-0.2 2.4-0.3 3.8-0.3 2.1 0 3.5 0.4 4.4 1.2 0.8 0.7 1.2 1.7 1.2 2.9 0 2-1.3 3.3-2.9 3.9v0.1c1.2 0.4 1.9 1.5 2.2 3.1 0.5 2.1 0.9 3.6 1.2 4.2h-2c-0.2-0.5-0.6-1.7-1-3.6-0.5-2.1-1.3-2.9-3-3h-1.8v6.6h-2v-15.1zm2 6.9h2c2.1 0 3.4-1.2 3.4-2.9 0-2-1.4-2.8-3.5-2.8-0.9 0-1.6 0.1-1.9 0.2z"/><path
            class="stt4"
            d="m64.6 177.3c0 2.7 1.8 3.8 3.7 3.8 1.4 0 2.3-0.2 3-0.6l0.3 1.4c-0.7 0.3-1.9 0.7-3.6 0.7-3.4 0-5.4-2.2-5.4-5.5s1.9-5.9 5.1-5.9c3.6 0 4.5 3.1 4.5 5.1 0 0.4 0 0.7-0.1 0.9h-7.5zm5.8-1.4c0-1.3-0.5-3.2-2.8-3.2-2 0-2.9 1.8-3 3.2z"/><path
            class="stt4" d="m78.8 166.4h2v16h-2z"/><path class="stt4"
                                                        d="m90.2 168.4c0 0.7-0.5 1.2-1.3 1.2-0.7 0-1.2-0.5-1.2-1.2s0.5-1.2 1.2-1.2c0.8 0 1.3 0.5 1.3 1.2zm-2.2 14v-10.9h2v10.9z"/><path
            class="stt4"
            d="m104.8 179.8c0 0.9 0 1.9 0.2 2.6h-1.8l-0.2-1.4c-0.6 0.9-1.8 1.6-3.3 1.6-2.2 0-3.3-1.6-3.3-3.1 0-2.6 2.3-4.1 6.6-4.1v-0.2c0-0.9-0.2-2.5-2.5-2.5-1 0-2.1 0.3-2.8 0.8l-0.5-1.3c0.9-0.6 2.2-1 3.6-1 3.3 0 4.2 2.3 4.2 4.5v4.1zm-1.9-3c-2.2 0-4.6 0.3-4.6 2.5 0 1.3 0.9 1.9 1.9 1.9 1.4 0 2.3-0.9 2.6-1.8 0.1-0.2 0.1-0.4 0.1-0.6z"/><path
            class="stt4"
            d="m111.9 166.4h2v6.9c0.7-1.2 2-2 3.7-2 2.7 0 4.6 2.3 4.6 5.6 0 3.9-2.5 5.8-4.9 5.8-1.6 0-2.8-0.6-3.7-2.1h-0.1l-0.1 1.8h-1.7c0-0.7 0.1-1.8 0.1-2.8v-13.2zm2 11.6c0 0.2 0 0.5 0.1 0.7 0.4 1.4 1.5 2.3 3 2.3 2.1 0 3.3-1.7 3.3-4.2 0-2.2-1.1-4.1-3.2-4.1-1.4 0-2.6 0.9-3 2.4 0 0.2-0.1 0.5-0.1 0.8v2.1z"/><path
            class="stt4" d="m128.8 166.4h2v16h-2z"/><path class="stt4"
                                                         d="m139.2 177.3c0 2.7 1.8 3.8 3.7 3.8 1.4 0 2.3-0.2 3-0.6l0.3 1.4c-0.7 0.3-1.9 0.7-3.6 0.7-3.4 0-5.4-2.2-5.4-5.5s1.9-5.9 5.1-5.9c3.6 0 4.5 3.1 4.5 5.1 0 0.4 0 0.7-0.1 0.9h-7.5zm5.8-1.4c0-1.3-0.5-3.2-2.8-3.2-2 0-2.9 1.8-3 3.2z"/><path
            class="stt4"
            d="m162.5 180c0.9 0.5 2.2 1 3.5 1 2 0 3.2-1.1 3.2-2.6 0-1.4-0.8-2.2-2.9-3-2.5-0.9-4-2.2-4-4.3 0-2.4 2-4.1 4.9-4.1 1.6 0 2.7 0.4 3.4 0.7l-0.5 1.6c-0.5-0.3-1.5-0.7-2.9-0.7-2.1 0-2.9 1.2-2.9 2.3 0 1.4 0.9 2.1 3 2.9 2.6 1 3.9 2.2 3.9 4.5s-1.7 4.4-5.3 4.4c-1.5 0-3.1-0.5-3.9-1z"/><path
            class="stt4"
            d="m186.7 179.4c0 1.1 0 2.1 0.1 3h-1.8l-0.1-1.8c-0.5 0.9-1.7 2-3.6 2-1.7 0-3.8-0.9-3.8-4.8v-6.4h2v6c0 2.1 0.6 3.5 2.4 3.5 1.3 0 2.3-0.9 2.6-1.8 0.1-0.3 0.2-0.7 0.2-1v-6.7h2z"/><path
            class="stt4"
            d="m193.6 180.4c0.6 0.4 1.6 0.8 2.6 0.8 1.4 0 2.1-0.7 2.1-1.6s-0.6-1.5-2-2c-2-0.7-2.9-1.8-2.9-3.1 0-1.8 1.4-3.2 3.8-3.2 1.1 0 2.1 0.3 2.7 0.7l-0.5 1.4c-0.4-0.3-1.2-0.6-2.2-0.6-1.2 0-1.8 0.7-1.8 1.5 0 0.9 0.7 1.3 2.1 1.8 1.9 0.7 2.9 1.7 2.9 3.3 0 1.9-1.5 3.3-4.1 3.3-1.2 0-2.3-0.3-3.1-0.8z"/><path
            class="stt4"
            d="m209.3 168.9v2.6h2.8v1.5h-2.8v5.9c0 1.4 0.4 2.1 1.5 2.1 0.5 0 0.9 0 1.2-0.1l0.1 1.5c-0.4 0.2-1 0.3-1.8 0.3-0.9 0-1.7-0.3-2.1-0.9-0.6-0.6-0.8-1.6-0.8-2.8v-6h-1.7v-1.5h1.7v-2z"/><path
            class="stt4"
            d="m226.1 179.8c0 0.9 0 1.9 0.2 2.6h-1.8l-0.2-1.4h-0.1c-0.6 0.9-1.8 1.6-3.3 1.6-2.2 0-3.3-1.6-3.3-3.1 0-2.6 2.3-4.1 6.6-4.1v-0.2c0-0.9-0.2-2.5-2.5-2.5-1 0-2.1 0.3-2.8 0.8l-0.5-1.3c0.9-0.6 2.2-1 3.6-1 3.3 0 4.2 2.3 4.2 4.5v4.1zm-1.9-3c-2.2 0-4.6 0.3-4.6 2.5 0 1.3 0.9 1.9 1.9 1.9 1.4 0 2.3-0.9 2.6-1.8 0.1-0.2 0.1-0.4 0.1-0.6z"/><path
            class="stt4"
            d="m235.4 168.4c0 0.7-0.5 1.2-1.3 1.2-0.7 0-1.2-0.5-1.2-1.2s0.5-1.2 1.2-1.2c0.9 0 1.3 0.5 1.3 1.2zm-2.2 14v-10.9h2v10.9z"/><path
            class="stt4"
            d="m242.4 174.4c0-1.1 0-2.1-0.1-3h1.8l0.1 1.8c0.5-1 1.8-2.1 3.6-2.1 1.5 0 3.9 0.9 3.9 4.6v6.5h-2v-6.3c0-1.8-0.7-3.2-2.5-3.2-1.3 0-2.3 0.9-2.7 2-0.1 0.2-0.1 0.6-0.1 0.9v6.6h-2z"/><path
            class="stt4"
            d="m266.4 179.8c0 0.9 0 1.9 0.2 2.6h-1.8l-0.2-1.4h-0.1c-0.6 0.9-1.8 1.6-3.3 1.6-2.2 0-3.3-1.6-3.3-3.1 0-2.6 2.3-4.1 6.6-4.1v-0.2c0-0.9-0.2-2.5-2.5-2.5-1 0-2.1 0.3-2.8 0.8l-0.5-1.3c0.9-0.6 2.2-1 3.6-1 3.3 0 4.2 2.3 4.2 4.5v4.1zm-1.9-3c-2.2 0-4.6 0.3-4.6 2.5 0 1.3 0.9 1.9 1.9 1.9 1.4 0 2.3-0.9 2.6-1.8 0.1-0.2 0.1-0.4 0.1-0.6z"/><path
            class="stt4"
            d="m273.5 166.4h2v6.9c0.7-1.2 2-2 3.7-2 2.7 0 4.6 2.3 4.6 5.6 0 3.9-2.5 5.8-4.9 5.8-1.6 0-2.8-0.6-3.7-2.1h-0.1l-0.1 1.8h-1.7c0-0.7 0.1-1.8 0.1-2.8v-13.2zm2 11.6c0 0.2 0 0.5 0.1 0.7 0.4 1.4 1.5 2.3 3 2.3 2.1 0 3.3-1.7 3.3-4.2 0-2.2-1.1-4.1-3.2-4.1-1.4 0-2.6 0.9-3 2.4 0 0.2-0.1 0.5-0.1 0.8v2.1z"/><path
            class="stt4" d="m290.4 166.4h2v16h-2z"/><path class="stt4"
                                                         d="m300.8 177.3c0 2.7 1.8 3.8 3.7 3.8 1.4 0 2.3-0.2 3-0.6l0.3 1.4c-0.7 0.3-1.9 0.7-3.6 0.7-3.4 0-5.4-2.2-5.4-5.5s1.9-5.9 5.1-5.9c3.6 0 4.5 3.1 4.5 5.1 0 0.4 0 0.7-0.1 0.9h-7.5zm5.9-1.4c0-1.3-0.5-3.2-2.8-3.2-2 0-2.9 1.8-3 3.2z"/><path
            class="stt4"
            d="m335 181.9c-0.7 0.4-2.2 0.7-4 0.7-4.3 0-7.5-2.7-7.5-7.7 0-4.8 3.2-8 7.9-8 1.9 0 3.1 0.4 3.6 0.7l-0.5 1.6c-0.7-0.4-1.8-0.6-3.1-0.6-3.6 0-5.9 2.3-5.9 6.3 0 3.7 2.1 6.1 5.8 6.1 1.2 0 2.4-0.2 3.2-0.6z"/><path
            class="stt4"
            d="m350.9 176.9c0 4-2.8 5.8-5.4 5.8-3 0-5.2-2.2-5.2-5.6 0-3.7 2.4-5.8 5.4-5.8 3.1-0.1 5.2 2.2 5.2 5.6zm-8.7 0.1c0 2.4 1.4 4.2 3.3 4.2s3.3-1.8 3.3-4.2c0-1.8-0.9-4.2-3.3-4.2-2.3-0.1-3.3 2.1-3.3 4.2z"/><path
            class="stt4"
            d="m357.4 174.4c0-1.1 0-2.1-0.1-3h1.8l0.1 1.8c0.5-1 1.8-2.1 3.6-2.1 1.5 0 3.9 0.9 3.9 4.6v6.5h-2v-6.3c0-1.8-0.7-3.2-2.5-3.2-1.3 0-2.3 0.9-2.7 2-0.1 0.2-0.1 0.6-0.1 0.9v6.6h-2z"/><path
            class="stt4"
            d="m373.8 174.4c0-1.1 0-2.1-0.1-3h1.8l0.1 1.8c0.5-1 1.8-2.1 3.6-2.1 1.5 0 3.9 0.9 3.9 4.6v6.5h-2v-6.3c0-1.8-0.7-3.2-2.5-3.2-1.3 0-2.3 0.9-2.7 2-0.1 0.2-0.1 0.6-0.1 0.9v6.6h-2z"/><path
            class="stt4"
            d="m391.4 177.3c0 2.7 1.8 3.8 3.7 3.8 1.4 0 2.3-0.2 3-0.6l0.3 1.4c-0.7 0.3-1.9 0.7-3.6 0.7-3.4 0-5.4-2.2-5.4-5.5s1.9-5.9 5.1-5.9c3.6 0 4.5 3.1 4.5 5.1 0 0.4 0 0.7-0.1 0.9h-7.5zm5.8-1.4c0-1.3-0.5-3.2-2.8-3.2-2 0-2.9 1.8-3 3.2z"/><path
            class="stt4"
            d="m413.5 182c-0.5 0.3-1.7 0.7-3.1 0.7-3.3 0-5.4-2.3-5.4-5.6 0-3.4 2.3-5.8 5.9-5.8 1.2 0 2.2 0.3 2.8 0.6l-0.5 1.5c-0.5-0.3-1.2-0.5-2.3-0.5-2.5 0-3.9 1.8-3.9 4.1 0 2.5 1.6 4.1 3.8 4.1 1.1 0 1.9-0.3 2.4-0.5z"/><path
            class="stt4"
            d="m422.7 168.9v2.6h2.8v1.5h-2.8v5.9c0 1.4 0.4 2.1 1.5 2.1 0.5 0 0.9 0 1.2-0.1l0.1 1.5c-0.4 0.2-1 0.3-1.8 0.3-0.9 0-1.7-0.3-2.1-0.9-0.6-0.6-0.8-1.6-0.8-2.8v-6h-1.7v-1.5h1.7v-2z"/><path
            class="stt4"
            d="m432.6 177.3c0 2.7 1.8 3.8 3.7 3.8 1.4 0 2.3-0.2 3-0.6l0.3 1.4c-0.7 0.3-1.9 0.7-3.6 0.7-3.4 0-5.4-2.2-5.4-5.5s1.9-5.9 5.1-5.9c3.6 0 4.5 3.1 4.5 5.1 0 0.4 0 0.7-0.1 0.9h-7.5zm5.9-1.4c0-1.3-0.5-3.2-2.8-3.2-2 0-2.9 1.8-3 3.2z"/><path
            class="stt4"
            d="m456.4 166.4v13.2c0 1 0 2.1 0.1 2.8h-1.8l-0.1-1.9c-0.6 1.2-1.9 2.1-3.7 2.1-2.6 0-4.7-2.2-4.7-5.6 0-3.6 2.2-5.9 4.9-5.9 1.7 0 2.8 0.8 3.3 1.7v-6.5h2zm-2 9.5c0-0.2 0-0.6-0.1-0.8-0.3-1.3-1.4-2.3-2.9-2.3-2.1 0-3.3 1.8-3.3 4.2 0 2.2 1.1 4 3.2 4 1.3 0 2.5-0.9 2.9-2.4 0.1-0.3 0.1-0.5 0.1-0.9v-1.8z"/></g></g>
    <g class="stt10" transform="translate(-388.5 -27.728)" display="none" fill="#fff" stroke="#1a171b"><rect class="stt12" y="62.6" width="50.5" height="63.6" display="inline"/>
        <rect class="stt12" y="126.2" width="50.5" height="63.6" display="inline"/>
        <rect class="stt12" width="50.5" height="63.6" display="inline"/>
        <rect class="stt12" x="497.6" y="62.6" width="50.5" height="63.6" display="inline"/>
        <rect class="stt12" x="497.6" y="126.2" width="50.5" height="63.6" display="inline"/>
        <rect class="stt12" x="497.6" width="50.5" height="63.6" display="inline"/></g></svg>

