<svg id="aa3fa0d0-c8d4-44dc-896a-01b0fd6a68c2" data-name="Calque 1" xmlns="http://www.w3.org/2000/svg" viewBox="0 0 159.23 183.2"><polygon points="1.18 47.13 1.18 137.84 79.74 183.2 158.29 137.84 158.29 47.13 79.74 1.78 1.18 47.13" style="fill:#07a689"/><polygon points="158.29 137.84 79.74 183.2 1.18 137.84 79.74 92.49 158.29 137.84" style="fill:#f5f5f5"/><path d="M132.55,67.52,98.85,44.59l0-.11-.1,0-1.88-1.28H64.63l-2,1.26h0v0l-35.72,23H57.79l-13.24,62.9,4.62,1L62.61,67.52H98.86l13.44,63.87,4.62-1-13.24-62.9Zm-15.31-4.71H102.68l-2.43-11.56Zm-74.3,0L61.27,51,58.78,62.81Zm20.66,0,3.13-14.88h28l3.13,14.88Z" style="fill:#202121"/><circle cx="46.17" cy="130.91" r="6.94" style="fill:#f5f5f5"/><path d="M46.17,128.68A2.23,2.23,0,1,1,44,130.91a2.23,2.23,0,0,1,2.22-2.23m0-4.71a6.94,6.94,0,1,0,6.94,6.94A6.94,6.94,0,0,0,46.17,124Z" style="fill:#202121"/><circle cx="115.3" cy="130.91" r="6.94" style="fill:#f5f5f5"/><path d="M115.3,128.68a2.23,2.23,0,1,1-2.23,2.23,2.23,2.23,0,0,1,2.23-2.23m0-4.71a6.94,6.94,0,1,0,6.94,6.94A6.93,6.93,0,0,0,115.3,124Z" style="fill:#202121"/><circle cx="126.6" cy="64.83" r="6.94" style="fill:#07a689"/><path d="M126.6,62.61a2.22,2.22,0,1,1-2.22,2.22,2.21,2.21,0,0,1,2.22-2.22m0-4.72a6.94,6.94,0,1,0,6.94,6.94,6.94,6.94,0,0,0-6.94-6.94Z" style="fill:#202121"/><circle cx="33.04" cy="64.83" r="6.94" style="fill:#07a689"/><path d="M33,62.61a2.22,2.22,0,1,1-2.22,2.22A2.22,2.22,0,0,1,33,62.61m0-4.72A6.94,6.94,0,1,0,40,64.83,6.94,6.94,0,0,0,33,57.89Z" style="fill:#202121"/></svg>