<svg id="b2912966-7571-4c3c-9f31-a055988c0c8d" data-name="Calque 1" xmlns="http://www.w3.org/2000/svg" viewBox="0 0 159.23 183.2"><polygon points="0.44 45.85 0.44 137.42 79.74 183.2 159.03 137.42 159.03 45.85 79.74 0.07 0.44 45.85" style="fill:#07a689"/><polygon points="159.03 137.42 79.74 183.2 0.44 137.42 79.74 91.64 159.03 137.42" style="fill:#202121"/><path d="M133.05,66.44,99,43.28l0-.11-.1,0L97,41.9H64.49l-2,1.28h0v0l-36,23.24H57.58L44.22,129.92l4.66,1L62.45,66.44H99l13.58,64.46,4.66-1L103.9,66.44Zm-15.46-4.76H102.9L100.44,50Zm-75,0L61.1,49.75,58.58,61.68Zm20.85,0,3.16-15H94.87l3.16,15Z" style="fill:#f5f5f5"/><circle cx="45.85" cy="130.41" r="7" style="fill:#202121"/><path d="M45.85,128.17a2.25,2.25,0,1,1-2.24,2.24,2.25,2.25,0,0,1,2.24-2.24m0-4.76a7,7,0,1,0,7,7,7,7,0,0,0-7-7Z" style="fill:#f5f5f5"/><circle cx="115.63" cy="130.41" r="7" style="fill:#202121"/><path d="M115.63,128.17a2.25,2.25,0,1,1-2.24,2.24,2.24,2.24,0,0,1,2.24-2.24m0-4.76a7,7,0,1,0,7,7,7,7,0,0,0-7-7Z" style="fill:#f5f5f5"/><circle cx="127.04" cy="63.72" r="7" style="fill:#07a689"/><path d="M127,61.47a2.25,2.25,0,1,1-2.24,2.25A2.25,2.25,0,0,1,127,61.47m0-4.76a7,7,0,1,0,7,7,7,7,0,0,0-7-7Z" style="fill:#f5f5f5"/><circle cx="32.61" cy="63.72" r="7" style="fill:#07a689"/><path d="M32.61,61.47a2.25,2.25,0,1,1-2.25,2.25,2.25,2.25,0,0,1,2.25-2.25m0-4.76a7,7,0,1,0,7,7,7,7,0,0,0-7-7Z" style="fill:#f5f5f5"/></svg>