<svg width="47.279259" height="54.585152" viewBox="0 0 86.531912 99.999998" fill="none" xmlns="http://www.w3.org/2000/svg">
<path d="M86.6156 75.0103V24.9897L43.2975 0L0 24.9897V75.0103L43.2975 100L86.6156 75.0103Z" fill="#07A689"/>
<path d="M86.533 75.0103L43.2975 100L0.0828247 75.0103L43.2975 50.3103L86.533 75.0103Z" fill="white"/>
<path d="M72.6313 42.7389L53.041 24.7828H33.6367L14.0877 42.7389H30.9268L25.693 73.1071L28.734 73.6243L33.9677 42.7389H52.8134L58.0058 73.6243L61.0674 73.1071L55.9578 42.7389H72.6313ZM55.4613 39.6566L53.7857 29.6855L64.6462 39.6566H55.4613ZM21.9901 39.6566L33.0575 29.5407L31.3405 39.6566H21.9901ZM34.4021 39.6566L36.4708 27.9272H50.331L52.2962 39.6566H34.4021Z" fill="#1d1e1b"/>
<path d="M17.2941 43.794C16.7827 43.794 16.2827 43.6423 15.8575 43.3582C15.4322 43.074 15.1008 42.6702 14.9051 42.1977C14.7094 41.7252 14.6582 41.2052 14.7579 40.7036C14.8577 40.202 15.104 39.7413 15.4656 39.3796C15.8273 39.018 16.288 38.7717 16.7896 38.6719C17.2912 38.5722 17.8112 38.6234 18.2837 38.8191C18.7562 39.0148 19.16 39.3462 19.4442 39.7715C19.7283 40.1967 19.88 40.6967 19.88 41.2081C19.88 41.8939 19.6075 42.5516 19.1226 43.0366C18.6376 43.5215 17.9799 43.794 17.2941 43.794V43.794Z" fill="#07A689"/>
<path d="M17.2941 39.6566C17.6774 39.7008 18.031 39.8843 18.2877 40.1723C18.5444 40.4603 18.6863 40.8326 18.6863 41.2184C18.6863 41.6042 18.5444 41.9766 18.2877 42.2646C18.031 42.5526 17.6774 42.7361 17.2941 42.7803C16.9109 42.7361 16.5572 42.5526 16.3005 42.2646C16.0438 41.9766 15.902 41.6042 15.902 41.2184C15.902 40.8326 16.0438 40.4603 16.3005 40.1723C16.5572 39.8843 16.9109 39.7008 17.2941 39.6566V39.6566ZM17.2941 37.5879C16.5723 37.5838 15.8655 37.7944 15.2636 38.1929C14.6617 38.5914 14.1919 39.1598 13.9137 39.8259C13.6356 40.492 13.5618 41.2258 13.7016 41.934C13.8414 42.6421 14.1886 43.2928 14.699 43.8032C15.2094 44.3136 15.8601 44.6608 16.5683 44.8006C17.2764 44.9405 18.0102 44.8666 18.6763 44.5885C19.3425 44.3104 19.9109 43.8405 20.3094 43.2386C20.7078 42.6367 20.9184 41.9299 20.9143 41.2081C20.9143 40.248 20.5329 39.3272 19.854 38.6482C19.1751 37.9693 18.2543 37.5879 17.2941 37.5879V37.5879Z" fill="#1d1e1b"/>
<path d="M69.3216 43.7939C68.8133 43.7735 68.3223 43.6037 67.9101 43.3056C67.4979 43.0075 67.1828 42.5945 67.0041 42.1182C66.8255 41.6419 66.7913 41.1235 66.9059 40.6279C67.0204 40.1323 67.2786 39.6814 67.6481 39.3318C68.0176 38.9822 68.482 38.7494 68.9832 38.6624C69.4844 38.5754 70.0002 38.6382 70.4658 38.8429C70.9315 39.0476 71.3265 39.3851 71.6013 39.8132C71.8762 40.2412 72.0186 40.7408 72.0109 41.2495C72.0056 41.5944 71.9314 41.9349 71.7926 42.2507C71.6538 42.5665 71.4531 42.8514 71.2025 43.0885C70.9519 43.3256 70.6564 43.5102 70.3334 43.6314C70.0103 43.7525 69.6663 43.8078 69.3216 43.7939V43.7939Z" fill="#07A689"/>
<path d="M69.3216 39.6566C69.6343 39.6525 69.9411 39.7417 70.2028 39.9129C70.4645 40.0841 70.6692 40.3294 70.7907 40.6175C70.9123 40.9056 70.9451 41.2234 70.8851 41.5303C70.8251 41.8372 70.675 42.1192 70.4539 42.3404C70.2328 42.5615 69.9507 42.7116 69.6438 42.7716C69.3369 42.8316 69.0191 42.7988 68.731 42.6772C68.4429 42.5557 68.1976 42.3509 68.0264 42.0893C67.8553 41.8276 67.766 41.5208 67.7701 41.2081C67.7755 40.7983 67.9406 40.4067 68.2304 40.1169C68.5203 39.8271 68.9118 39.6619 69.3216 39.6566V39.6566ZM69.3216 37.5879C68.6006 37.5879 67.8959 37.802 67.2967 38.203C66.6975 38.604 66.2309 39.1738 65.9559 39.8403C65.681 40.5068 65.6101 41.2399 65.7523 41.9467C65.8944 42.6535 66.2433 43.3022 66.7545 43.8106C67.2658 44.3189 67.9165 44.6641 68.6241 44.8022C69.3317 44.9403 70.0644 44.8653 70.7293 44.5865C71.3942 44.3078 71.9614 43.8379 72.359 43.2365C72.7565 42.635 72.9666 41.9291 72.9625 41.2081C72.957 40.2461 72.571 39.3253 71.8888 38.647C71.2066 37.9686 70.2837 37.5879 69.3216 37.5879V37.5879Z" fill="#1d1e1b"/>
<path d="M43.2974 43.8353C44.7255 43.8353 45.8832 42.6776 45.8832 41.2495C45.8832 39.8214 44.7255 38.6636 43.2974 38.6636C41.8693 38.6636 40.7115 39.8214 40.7115 41.2495C40.7115 42.6776 41.8693 43.8353 43.2974 43.8353Z" fill="#07A689"/>
<path d="M43.2975 39.6566C43.6102 39.6525 43.917 39.7417 44.1787 39.9129C44.4403 40.0841 44.6451 40.3294 44.7666 40.6175C44.8882 40.9056 44.921 41.2234 44.861 41.5303C44.801 41.8372 44.6509 42.1192 44.4298 42.3404C44.2086 42.5615 43.9266 42.7116 43.6197 42.7716C43.3128 42.8316 42.995 42.7988 42.7069 42.6772C42.4188 42.5557 42.1735 42.3509 42.0023 42.0893C41.8311 41.8276 41.7419 41.5208 41.746 41.2081C41.7513 40.7983 41.9165 40.4067 42.2063 40.1169C42.4961 39.8271 42.8877 39.6619 43.2975 39.6566V39.6566ZM43.2975 37.5879C42.5765 37.5879 41.8718 37.802 41.2726 38.203C40.6734 38.604 40.2068 39.1738 39.9318 39.8403C39.6569 40.5068 39.586 41.2399 39.7282 41.9467C39.8703 42.6535 40.2192 43.3022 40.7304 43.8106C41.2417 44.3189 41.8923 44.6641 42.6 44.8022C43.3076 44.9403 44.0403 44.8653 44.7052 44.5865C45.3701 44.3078 45.9373 43.8379 46.3349 43.2365C46.7324 42.635 46.9425 41.9291 46.9384 41.2081C46.9329 40.2461 46.5469 39.3253 45.8647 38.647C45.1825 37.9686 44.2595 37.5879 43.2975 37.5879V37.5879Z" fill="#1d1e1b"/>
<path d="M27.2239 75.9619C28.652 75.9619 29.8097 74.8042 29.8097 73.3761C29.8097 71.948 28.652 70.7902 27.2239 70.7902C25.7957 70.7902 24.638 71.948 24.638 73.3761C24.638 74.8042 25.7957 75.9619 27.2239 75.9619Z" fill="#1d1e1b"/>
<path d="M27.2239 71.8246C27.6354 71.8246 28.03 71.988 28.321 72.279C28.6119 72.57 28.7754 72.9646 28.7754 73.3761C28.7754 73.7876 28.6119 74.1822 28.321 74.4732C28.03 74.7641 27.6354 74.9276 27.2239 74.9276C26.8124 74.9276 26.4178 74.7641 26.1268 74.4732C25.8358 74.1822 25.6724 73.7876 25.6724 73.3761C25.6724 72.9646 25.8358 72.57 26.1268 72.279C26.4178 71.988 26.8124 71.8246 27.2239 71.8246V71.8246ZM27.2239 69.7559C26.5079 69.7559 25.808 69.9682 25.2126 70.366C24.6173 70.7638 24.1533 71.3292 23.8793 71.9907C23.6053 72.6522 23.5336 73.3801 23.6733 74.0823C23.8129 74.7846 24.1577 75.4296 24.664 75.9359C25.1703 76.4422 25.8154 76.787 26.5176 76.9267C27.2199 77.0664 27.9478 76.9947 28.6093 76.7207C29.2708 76.4467 29.8362 75.9827 30.234 75.3873C30.6318 74.792 30.8441 74.0921 30.8441 73.3761C30.8441 72.4159 30.4627 71.4951 29.7838 70.8162C29.1048 70.1373 28.184 69.7559 27.2239 69.7559V69.7559Z" fill="#1d1e1b"/>
<path d="M59.5367 75.9619C60.9648 75.9619 62.1225 74.8042 62.1225 73.3761C62.1225 71.948 60.9648 70.7902 59.5367 70.7902C58.1085 70.7902 56.9508 71.948 56.9508 73.3761C56.9508 74.8042 58.1085 75.9619 59.5367 75.9619Z" fill="#1d1e1b"/>
<path d="M59.5987 71.8246C60.0102 71.8246 60.4048 71.988 60.6958 72.279C60.9868 72.57 61.1502 72.9646 61.1502 73.3761C61.1502 73.7876 60.9868 74.1822 60.6958 74.4732C60.4048 74.7641 60.0102 74.9276 59.5987 74.9276C59.1872 74.9276 58.7926 74.7641 58.5016 74.4732C58.2107 74.1822 58.0472 73.7876 58.0472 73.3761C58.0472 72.9646 58.2107 72.57 58.5016 72.279C58.7926 71.988 59.1872 71.8246 59.5987 71.8246ZM59.5987 69.7559C58.8827 69.7559 58.1828 69.9682 57.5874 70.366C56.9921 70.7638 56.5281 71.3292 56.2541 71.9907C55.9801 72.6522 55.9084 73.3801 56.0481 74.0823C56.1878 74.7846 56.5326 75.4296 57.0388 75.9359C57.5451 76.4422 58.1902 76.787 58.8924 76.9267C59.5947 77.0664 60.3226 76.9947 60.9841 76.7207C61.6456 76.4467 62.211 75.9827 62.6088 75.3873C63.0066 74.792 63.2189 74.0921 63.2189 73.3761C63.2189 72.4159 62.8375 71.4951 62.1586 70.8162C61.4797 70.1373 60.5588 69.7559 59.5987 69.7559V69.7559Z" fill="#1d1e1b"/>
</svg>
