<?xml version="1.0" encoding="UTF-8" standalone="no"?>
<svg
   xmlns="http://www.w3.org/2000/svg"
   id="svg3859"
   version="1.1"
   viewBox="0 0 55.258289 54.543186"
   height="707.41229"
   width="716.68701">
  <g
     transform="translate(-2.8347103,-69.107572)"
     id="g3917">
    <path
       style="clip-rule:evenodd;fill:#366db4;fill-rule:evenodd"
       id="path3845"
       d="m 33.866,72.616 c 1.699,2.154 3.486,4.41 5.324,6.453 l 4.54,4.742 c 4.035848,4.021806 8.436777,7.659787 13.146,10.867 l 0.152,0.024 c 0.602623,0.397527 0.993881,1.045582 1.065,1.764 -0.024,1.508 -1.761,1.811 -2.674,2.623 -9.091,6.592 -17.23,14.756 -23.646,23.848 l -0.517,0.52 c -0.521,0.318 -1.193,0.191 -1.739,0 -0.697,-0.229 -0.772,-0.988 -1.217,-1.459 -1.419,-2.205 -3.233,-4.271 -4.779,-6.324 -0.913,-0.928 -1.674,-1.902 -2.612,-2.891 C 15.634,106.998 9.7,101.928 3.501,97.656 3.057,97.211 2.689,96.627 2.892,95.918 3.083,95.132 3.995,94.663 4.604,94.182 12.35,88.869 19.451,81.935 25.446,74.504 l 3.742,-4.869 c 0.493,-0.378 1.154,-0.695 1.761,-0.429 0.279,0.075 0.597,0.328 0.85,0.479 z" />
    <path
       style="clip-rule:evenodd;fill:#ffffff;fill-rule:evenodd"
       id="path3847"
       d="m 28.515,76.787 a 70.47,70.47 0 0 0 -5.085,3.982 c -0.139,0.088 -0.304,0.277 -0.392,0.367 -3.892,3.474 -7.746,7.277 -10.891,11.283 -0.887,1.153 -1.825,2.282 -2.168,3.651 -0.013,0.734 0.102,1.42 0.496,1.977 2.661,3.969 6.188,7.762 9.698,11.02 3.031,2.699 5.947,5.668 9.407,7.479 1.141,0.533 2.422,-0.088 3.373,-0.76 4.704,-3.311 8.901,-7.455 12.88,-11.74 1.838,-2.256 3.944,-4.322 4.983,-6.908 C 51.095,96.109 50.651,95.235 50.145,94.46 47.039,90.023 43.26,85.828 39.19,82.048 L 38.924,81.896 C 37.453,80.476 35.78,79.083 34.17,77.853 32.635,76.546 30.342,75.367 28.515,76.787 Z" />
    <path
       style="clip-rule:evenodd;fill:#366db4;fill-rule:evenodd"
       id="path3849"
       d="m 29.188,77.902 c -5.795,4.006 -11.373,9.432 -15.861,14.972 -0.914,1.345 -2.511,2.626 -1.788,4.415 0.52,1.318 1.687,2.268 2.435,3.434 4.398,5.287 9.597,10.219 15.022,14.188 2.384,1.521 4.083,-0.938 5.934,-2.068 3.791,-2.99 7.303,-6.629 10.625,-10.166 v -0.088 c 1.33,-1.611 2.738,-3.195 3.777,-4.932 0.458,-0.852 0.229,-2.018 -0.28,-2.766 C 45.033,89.071 39.76,83.925 34.169,79.424 32.723,78.409 31.05,76.635 29.188,77.902 Z" />
    <path
       style="clip-rule:evenodd;fill:#ffffff;fill-rule:evenodd"
       id="path3851"
       d="m 30.366,81.554 -0.506,1.622 -2.536,7.266 c 0.634,0.062 1.42,0 2.041,0.062 v 0.064 l -0.368,8.215 0.064,0.09 c 0.812,0.074 1.824,0.113 2.649,-0.027 v -0.125 l -0.33,-7.975 0.051,-0.266 2.231,-0.038 a 357.585,357.585 0 0 1 -3.233,-8.888 z" />
    <path
       style="clip-rule:evenodd;fill:#ffffff;fill-rule:evenodd"
       id="path3853"
       d="m 21.733,92.938 c -1.422,0.71 -3.513,1.79 -3.284,3.739 0.304,1.066 1.458,1.75 2.371,2.195 5.045,2.219 11.741,2.295 17.064,0.633 1.319,-0.506 3.082,-1.24 3.322,-2.852 -0.013,-1.333 -1.42,-2.168 -2.435,-2.675 v -0.063 c 0.354,-0.139 0.762,-0.267 1.129,-0.306 v -0.038 c -1.788,-0.317 -3.513,-0.786 -5.236,-1.242 0.33,0.76 0.57,1.559 0.85,2.347 a 9.482,9.482 0 0 1 1.609,-0.37 c 0.914,0.356 2.219,0.863 2.346,2.003 0.102,1.066 -1.065,1.584 -1.8,2.016 -3.905,1.42 -8.305,1.561 -12.375,0.482 -1.127,-0.354 -2.751,-0.812 -2.89,-2.242 0.799,-1.889 2.866,-2.284 4.589,-2.739 -0.887,-0.572 -1.787,-1.079 -2.649,-1.713 -0.925,0.053 -1.774,0.458 -2.611,0.825 z m 7.213,8.191 c -0.151,2.916 -0.189,5.617 -0.405,8.547 1.154,0.102 2.459,0.203 3.689,0.023 l -0.368,-8.152 -0.064,-0.393 c -0.937,0.039 -1.824,0.076 -2.852,-0.025 z" />
    <path
       style="clip-rule:evenodd;fill:#366db4;fill-rule:evenodd"
       id="path3855"
       d="m 39.551,119.381 v -0.498 h 0.31 c 0.168,0 0.396,0.016 0.396,0.227 0,0.229 -0.117,0.271 -0.314,0.271 z m 0,0.349 h 0.209 l 0.475,0.867 h 0.524 l -0.528,-0.902 c 0.275,-0.023 0.497,-0.16 0.497,-0.539 0,-0.473 -0.314,-0.623 -0.847,-0.623 H 39.11 v 2.064 h 0.44 v -0.867 z m 2.243,-0.164 c 0,-1.213 -0.909,-1.918 -1.924,-1.918 -1.019,0 -1.928,0.705 -1.928,1.918 0,1.213 0.909,1.92 1.928,1.92 1.015,0 1.924,-0.707 1.924,-1.92 z m -0.553,0 c 0,0.883 -0.63,1.479 -1.371,1.479 v -0.006 c -0.76,0.006 -1.374,-0.59 -1.374,-1.473 0,-0.883 0.614,-1.471 1.374,-1.471 0.741,0.001 1.371,0.589 1.371,1.471 z" />
  </g>
</svg>
