<!DOCTYPE svg PUBLIC "-//W3C//DTD SVG 20010904//EN" "http://www.w3.org/TR/2001/REC-SVG-20010904/DTD/svg10.dtd">
<svg version="1.0" xmlns="http://www.w3.org/2000/svg" width="864px" height="864px" viewBox="0 0 8640 8640" preserveAspectRatio="xMidYMid meet">
<g id="layer101" fill="#013f53" stroke="none">
<path d="M4160 8494 c-847 -43 -1595 -299 -2270 -777 -350 -249 -720 -618 -966 -967 -438 -619 -688 -1290 -765 -2055 -15 -154 -16 -606 0 -755 147 -1426 951 -2639 2191 -3304 476 -255 1034 -424 1575 -477 170 -17 635 -17 795 0 1308 137 2445 840 3140 1940 337 534 555 1175 621 1821 19 182 16 640 -4 824 -73 654 -270 1231 -604 1773 -42 68 -80 120 -86 116 -6 -3 -7 -1 -3 6 9 15 -32 73 -46 65 -7 -4 -8 -2 -4 5 9 15 -32 73 -46 65 -7 -4 -8 -2 -4 4 9 15 -34 73 -47 65 -6 -3 -7 -1 -3 6 9 14 -63 103 -77 94 -5 -3 -7 -1 -4 4 9 14 -32 65 -45 57 -6 -4 -8 -3 -5 3 8 13 -17 48 -34 48 -7 0 -13 9 -15 19 -1 11 -35 51 -75 90 -40 39 -64 60 -54 46 l20 -25 -22 19 c-13 10 -20 23 -17 28 8 12 -63 81 -76 73 -6 -4 -9 -1 -8 6 2 7 -3 13 -9 14 -7 0 -12 3 -10 7 4 13 -107 118 -123 115 -8 -1 -14 3 -13 10 3 16 -47 54 -60 46 -5 -3 -7 -1 -4 4 8 13 -26 45 -44 41 -7 -2 -13 2 -14 9 0 19 -83 85 -96 77 -7 -4 -9 -3 -6 3 8 13 -50 56 -65 47 -6 -4 -8 -3 -5 3 8 13 -50 56 -65 47 -6 -4 -8 -3 -5 3 8 12 -16 30 -169 125 -535 335 -1160 549 -1794 612 -148 15 -463 26 -580 20z"/>
</g>
<g id="layer102" fill="#e3b940" stroke="none">
<path d="M2381 6294 c20 -21 422 -451 894 -954 l857 -915 -321 -3 c-177 -1 -321 -6 -321 -10 1 -6 2475 -1808 2542 -1851 30 -19 97 -93 -777 849 l-746 805 327 5 327 5 -1394 1045 c-767 576 -1401 1050 -1409 1054 -8 5 1 -9 21 -30z"/>
</g>
<g id="layer103" fill="#8eaca6" stroke="none">
<path d="M4160 8494 c-847 -43 -1595 -299 -2270 -777 -350 -249 -720 -618 -966 -967 -438 -619 -688 -1290 -765 -2055 -15 -154 -16 -606 0 -755 147 -1426 951 -2639 2191 -3304 476 -255 1034 -424 1575 -477 170 -17 635 -17 795 0 1308 137 2445 840 3140 1940 337 534 555 1175 621 1821 19 182 16 640 -4 824 -73 654 -270 1231 -604 1773 -42 68 -80 120 -86 116 -6 -3 -7 -1 -3 6 9 15 -32 73 -46 65 -7 -4 -8 -2 -4 5 9 15 -32 73 -46 65 -7 -4 -8 -2 -4 4 9 15 -34 73 -47 65 -6 -3 -7 -1 -3 6 9 14 -63 103 -77 94 -5 -3 -7 -1 -4 4 9 14 -32 65 -45 57 -6 -4 -8 -3 -5 3 8 13 -17 48 -34 48 -7 0 -13 9 -15 19 -1 11 -35 51 -75 90 -40 39 -64 60 -54 46 l20 -25 -22 19 c-13 10 -20 23 -17 28 8 12 -63 81 -76 73 -6 -4 -9 -1 -8 6 2 7 -3 13 -9 14 -7 0 -12 3 -10 7 4 13 -107 118 -123 115 -8 -1 -14 3 -13 10 3 16 -47 54 -60 46 -5 -3 -7 -1 -4 4 8 13 -26 45 -44 41 -7 -2 -13 2 -14 9 0 19 -83 85 -96 77 -7 -4 -9 -3 -6 3 8 13 -50 56 -65 47 -6 -4 -8 -3 -5 3 8 13 -50 56 -65 47 -6 -4 -8 -3 -5 3 8 12 -16 30 -169 125 -535 335 -1160 549 -1794 612 -148 15 -463 26 -580 20z m480 -605 c1219 -102 2315 -844 2876 -1946 204 -401 329 -832 375 -1288 15 -155 15 -527 0 -675 -78 -740 -352 -1395 -820 -1960 -419 -505 -996 -897 -1631 -1107 -228 -76 -518 -136 -780 -164 -148 -15 -520 -15 -675 0 -835 83 -1601 442 -2187 1025 -603 598 -962 1359 -1048 2221 -26 258 -9 664 39 940 249 1415 1315 2545 2711 2873 377 89 738 115 1140 81z"/>
<path d="M5575 6675 c-271 -75 -527 -370 -811 -936 -125 -250 -364 -791 -364 -824 0 -7 55 -54 122 -104 106 -79 124 -89 130 -74 187 458 419 954 540 1155 181 298 335 458 471 489 74 16 141 -5 229 -71 245 -186 507 -666 919 -1690 77 -189 143 -347 147 -351 6 -6 266 91 278 104 5 4 -194 497 -321 796 -404 950 -711 1390 -1047 1496 -91 29 -209 33 -293 10z"/>
<path d="M1545 4323 c-71 -29 -131 -58 -133 -65 -3 -14 209 -543 331 -828 337 -785 601 -1203 870 -1378 126 -83 171 -96 317 -97 113 0 131 2 188 26 112 48 175 92 282 199 172 170 312 385 495 755 151 306 360 788 351 811 -5 13 -226 175 -240 175 -5 0 -46 -89 -91 -198 -302 -724 -513 -1111 -720 -1319 -110 -112 -173 -148 -260 -148 -174 -2 -369 208 -610 655 -132 245 -290 599 -516 1158 -66 163 -123 298 -127 301 -4 4 -65 -18 -137 -47z"/>
</g>
<g id="layer104" fill="#d2e9e1" stroke="none">
<path d="M5623 6679 c-296 -52 -564 -355 -878 -994 -158 -319 -347 -765 -333 -782 14 -18 229 -176 232 -171 1 1 31 73 66 158 413 1008 741 1500 1000 1500 85 0 147 -35 261 -149 240 -242 483 -710 869 -1676 61 -154 115 -283 119 -287 5 -6 257 85 269 97 5 4 -225 575 -327 812 -285 664 -495 1034 -716 1258 -119 121 -215 185 -332 220 -63 19 -167 26 -230 14z"/>
<path d="M1545 4316 c-94 -38 -129 -57 -127 -68 1 -8 56 -148 121 -309 408 -1011 651 -1474 916 -1745 163 -167 309 -239 480 -239 347 1 653 334 1017 1109 81 171 284 639 290 668 2 10 -39 47 -116 103 -65 47 -120 85 -121 83 -2 -2 -44 -100 -93 -218 -304 -728 -541 -1151 -748 -1338 -88 -80 -155 -112 -231 -112 -89 0 -149 34 -263 149 -240 240 -467 676 -857 1646 -69 171 -128 313 -132 317 -3 3 -64 -17 -136 -46z"/>
</g>


</svg>