<?xml version="1.0" encoding="UTF-8" standalone="no"?>
<svg
   xmlns="http://www.w3.org/2000/svg"
   id="svg3809"
   version="1.1"
   viewBox="0 0 97.528 118.53334"
   height="118.53333mm"
   width="97.528mm">
  <g
     transform="translate(-60.976948,-82.637617)"
     id="layer1">
    <path
       id="path4944"
       d="M 67.145607,141.9043 V 82.637617 h 39.687513 39.6875 v 59.266683 59.26665 h -39.6875 -39.687513 z"
       style="fill:#ecd21c;fill-opacity:1;stroke-width:0.26458332" />
    <path
       id="path4950"
       d="M 146.52062,82.637617 94.315267,128.0384 h 20.766843 l -48.081793,64.91976 0.14529,8.21279 57.852203,-76.68724 -17.77343,-0.37418 z"
       style="fill:#ffffff;fill-opacity:1;stroke:none;stroke-width:0.26458332px;stroke-linecap:butt;stroke-linejoin:miter;stroke-opacity:1" />
    <path
       id="path4952"
       d="M 80.096527,82.762935 67.000317,192.95816 115.08211,128.0384 H 94.315267 L 146.52062,82.637617 Z"
       style="fill:#53453f;fill-opacity:1;stroke:none;stroke-width:0.26458332px;stroke-linecap:butt;stroke-linejoin:miter;stroke-opacity:1" />
    <path
       id="path4954"
       d="m 146.52062,82.637617 -39.29624,41.471913 17.77343,0.37418 -57.852203,76.68724 68.119373,0.11931 z"
       style="fill:#d45841;fill-opacity:1;stroke:none;stroke-width:0.26458332px;stroke-linecap:butt;stroke-linejoin:miter;stroke-opacity:1" />
    <path
       id="path4984"
       d="m 133.60389,93.426989 c 0,0 -8.28195,-0.7136 -18.69412,0.500685 -4.7953,0.559237 -9.81565,1.584105 -15.171943,3.414403 -9.11294,3.113983 -15.81622,5.038743 -21.69928,9.929473 -15.52836,12.90912 -16.65089,22.26356 -16.65089,22.26356 0,0 -0.61621,2.94449 -0.33905,6.1709 0.23429,2.72745 1.08008,5.33558 2.02284,6.36404 1.13548,1.2387 2.18951,2.51812 3.48213,3.99248 1.05018,1.19782 3.06609,2.77501 5.49813,3.86524 5.42557,2.43215 12.16077,1.6838 12.16077,1.6838 0,0 -2.37801,-1.27379 -5.93969,-3.92817 -1.81819,-1.35503 -3.94485,-1.82482 -6.22108,-5.23917 -2.67029,-4.00543 -3.55985,-8.12037 -2.53612,-11.39825 1.5584,-4.98983 6.00342,-10.21665 8.14878,-12.36202 5.23849,-4.11594 8.26371,-5.95304 19.64431,-10.47696 5.019733,-1.9954 9.794283,-3.67333 14.410453,-4.46454 12.15615,-2.08357 11.42137,-1.40763 13.65285,-2.45775 -0.64263,-0.36722 1.9755,-1.843438 4.33258,-3.728269 2.44639,-1.956246 3.89933,-4.129452 3.89933,-4.129452"
       style="fill:#d45841;fill-opacity:1;stroke:none;stroke-width:0.26458332px;stroke-linecap:butt;stroke-linejoin:miter;stroke-opacity:1" />
    <path
       id="path4984-3"
       d="m 85.878007,173.35754 c 0,0 8.28195,0.7136 18.694123,-0.50068 4.7953,-0.55924 9.81565,-1.58411 15.17194,-3.4144 9.11294,-3.11399 15.81622,-5.03874 21.69928,-9.92947 15.52836,-12.90913 16.65089,-22.26357 16.65089,-22.26357 0,0 0.61621,-2.94449 0.33905,-6.1709 -0.23429,-2.72745 -1.08008,-5.33558 -2.02284,-6.36404 -1.13548,-1.2387 -2.18951,-2.51812 -3.48213,-3.99248 -1.05018,-1.19782 -3.06609,-2.77501 -5.49813,-3.86524 -5.42557,-2.43215 -16.97028,-2.13547 -16.97028,-2.13547 l 10.61691,4.11526 c 2.1143,0.81953 4.07714,2.0894 6.35337,5.50375 2.67029,4.00543 3.55985,8.12037 2.53612,11.39825 -1.5584,4.98983 -6.00342,10.21665 -8.14878,12.36202 -5.23849,4.11594 -8.26371,5.95304 -19.64431,10.47697 -5.01973,1.9954 -9.79428,3.67333 -14.41045,4.46454 -12.156153,2.08357 -11.421373,1.40763 -13.652853,2.45775 0.64263,0.36722 0,0 -1.42216,1.74388 -0.86191,1.05689 -0.95626,1.6417 -2.28645,2.85981 -1.72503,1.57968 -1.61288,3.38631 -1.61288,3.38631"
       style="fill:#53453f;fill-opacity:1;stroke:none;stroke-width:0.26458332px;stroke-linecap:butt;stroke-linejoin:miter;stroke-opacity:1" />
  </g>
</svg>
