<?xml version="1.0" encoding="UTF-8" standalone="no"?>
<svg
   id="svg206"
   version="1.1"
   fill="none"
   viewBox="0 0 1140 400">
  <defs
     id="defs210" />
  <g
     id="line-attach-to-voltage-level">
    <path
       fill="#272727"
       d="M1163.01 0H4.99249C2.23521 0 0 3.33327 0 7.44508V356.555C0 360.667 2.23521 364 4.99249 364H1163.01C1165.76 364 1168 360.667 1168 356.555V7.44508C1168 3.33327 1165.76 0 1163.01 0Z"
       id="line-attach-illu-background" />
    <path
       fill="#FFA4C2"
       d="M330.282 124H138.718H130V133H138.718H330.282H339V124H330.282Z"
       id="lineBefore" />
    <path
       fill-opacity="0.941176"
       fill="#A5D6A7"
       d="M113.094 136.678C118.197 136.678 122.333 132.541 122.333 127.439C122.333 122.336 118.197 118.199 113.094 118.199C107.991 118.199 103.855 122.336 103.855 127.439C103.855 132.541 107.991 136.678 113.094 136.678Z"
       id="path3740" />
    <path
       fill="#A5D6A7"
       d="M356.178 137.198C361.478 137.198 365.774 132.902 365.774 127.602C365.774 122.302 361.478 118.005 356.178 118.005C350.878 118.005 346.581 122.302 346.581 127.602C346.581 132.902 350.878 137.198 356.178 137.198Z"
       id="path3740-0" />
    <g
       id="path7047">
      <path
         id="path135"
         fill="#9DCC9F"
         d="M112.797 115.151V51.701Z" />
      <path
         id="path137"
         stroke-dasharray="3.86 3.86"
         stroke-width="3.85668"
         stroke="#9DCC9F"
         d="M112.797 115.151V51.701" />
    </g>
    <g
       id="path7047-2">
      <path
         id="path140"
         fill="#9DCC9F"
         d="M356.198 114.191V50.7413Z" />
      <path
         id="path142"
         stroke-dasharray="3.86 3.86"
         stroke-width="3.85668"
         stroke="#9DCC9F"
         d="M356.198 114.191V50.7413" />
    </g>
    <path
       stroke-width="5.2"
       stroke="#FFCC80"
       d="M470.284 157.765C485.905 157.765 498.569 145.101 498.569 129.481C498.569 113.86 485.905 101.196 470.284 101.196C454.663 101.196 442 113.86 442 129.481C442 145.101 454.663 157.765 470.284 157.765Z"
       id="path7084" />
    <path
       fill="#FFCC80"
       d="M459.117 126.761L458.864 132.57L471.618 132.57L467.198 137.242L471.491 141.282L482.855 129.792L471.996 117.796L467.198 121.963L471.491 126.509L459.117 126.761Z"
       id="path9570" />
    <path
       fill="#A5D6A7"
       d="M591.543 137.198C596.843 137.198 601.139 132.902 601.139 127.602C601.139 122.302 596.843 118.005 591.543 118.005C586.243 118.005 581.946 122.302 581.946 127.602C581.946 132.902 586.243 137.198 591.543 137.198Z"
       id="path3740-0-8" />
    <path
       fill="#A5D6A7"
       d="M1021.89 137.178C1027.19 137.178 1031.49 132.881 1031.49 127.581C1031.49 122.281 1027.19 117.985 1021.89 117.985C1016.59 117.985 1012.29 122.281 1012.29 127.581C1012.29 132.881 1016.59 137.178 1021.89 137.178Z"
       id="path3740-0-5" />
    <path
       fill="#90CAF9"
       d="M804.596 137.726C809.896 137.726 814.193 133.43 814.193 128.13C814.193 122.83 809.896 118.533 804.596 118.533C799.296 118.533 795 122.83 795 128.13C795 133.43 799.296 137.726 804.596 137.726Z"
       id="path3740-0-0" />
    <path
       fill="#90CAF9"
       d="M778.617 123H616.383H609V132H616.383H778.617H786V123H778.617Z"
       id="lineBefore-6" />
    <g
       id="path7047-6">
      <path
         id="path151"
         fill="#9DCC9F"
         d="M804.107 114.052V50.6018Z" />
      <path
         id="path153"
         stroke-dasharray="3.86 3.86"
         stroke-width="3.85668"
         stroke="#90CAF9"
         d="M804.107 114.052V50.6018" />
    </g>
    <g
       id="path7047-8">
      <path
         id="path156"
         fill="#9DCC9F"
         d="M1021.89 115.052V51.6018Z" />
      <path
         id="path158"
         stroke-dasharray="3.86 3.86"
         stroke-width="3.85668"
         stroke="#9DCC9F"
         d="M1021.89 115.052V51.6018" />
    </g>
    <g
       id="path7047-5">
      <path
         id="path161"
         fill="#9DCC9F"
         d="M591.564 114.909V51.4589Z" />
      <path
         id="path163"
         stroke-dasharray="3.86 3.86"
         stroke-width="3.85668"
         stroke="#9DCC9F"
         d="M591.564 114.909V51.4589" />
    </g>
    <path
       fill="#90CAF9"
       d="M995.45 123H829.55H822V132H829.55H995.45H1003V123H995.45Z"
       id="lineBefore-6-4" />
    <g
       id="path7047-2_2">
      <path
         id="path167"
         fill="#9DCC9F"
         d="M880.45 310H817H880.45Z" />
      <path
         id="path169"
         stroke-dasharray="3.86 3.86"
         stroke-width="3.85668"
         stroke="#9DCC9F"
         d="M880.45 310H817" />
    </g>
    <path
       fill="#90CAF9"
       d="M800 147.419V200.581V203H809V200.581V147.419V145H800V147.419Z"
       id="lineBefore_2" />
    <path
       fill="#90CAF9"
       d="M800 241.211V289.789V292H809V289.789V241.211V239H800V241.211Z"
       id="lineBefore_3" />
    <path
       fill="#A5D6A7"
       d="M804.596 319.193C809.896 319.193 814.193 314.896 814.193 309.596C814.193 304.296 809.896 300 804.596 300C799.296 300 795 304.296 795 309.596C795 314.896 799.296 319.193 804.596 319.193Z"
       id="path3740-0_2" />
    <text
       letter-spacing="0em"
       font-size="18.6667"
       font-family="sans-serif"
       style="white-space: pre"
       xml:space="preserve"
       fill="#90CAF9"
       id="text4625-2-3-9"><tspan
         id="attached-line-illu-txt"
         y="226.28799"
         x="722.28497">Liaison de piquage</tspan></text>
    <text
       letter-spacing="0em"
       font-weight="bold"
       font-size="18.6667"
       font-family="sans-serif"
       style="white-space: pre"
       xml:space="preserve"
       fill="#9DCC9F"
       id="text177"><tspan
         id="attached-voltage-level-illu-txt"
         y="316.28799"
         x="887.159">Poste en piquage</tspan></text>
    <text
       letter-spacing="0em"
       font-weight="bold"
       font-size="18.6667"
       font-family="sans-serif"
       style="white-space: pre"
       xml:space="preserve"
       fill="#9DCC9F"
       id="text4625-3-2"><tspan
         id="line-attach-illu-voltage-level2-right-txt"
         y="40.338001"
         x="948.888">Poste extrémité</tspan></text>
    <text
       letter-spacing="0em"
       font-size="18.6667"
       font-family="sans-serif"
       style="white-space: pre"
       xml:space="preserve"
       fill="#90CAF9"
       id="text4625-2-3-9_2"><tspan
         id="line-attach-illu-line2-right-txt"
         y="158.739"
         x="837.46002">Liaison extrémité</tspan></text>
    <text
       letter-spacing="0em"
       font-weight="bold"
       font-size="18.6667"
       font-family="sans-serif"
       style="white-space: pre"
       xml:space="preserve"
       fill="#90CAF9"
       id="text4625-9-6"><tspan
         id="attachment-point-illu-txt"
         y="39.963402"
         x="727.45502">Point de piquage</tspan></text>
    <text
       letter-spacing="0em"
       font-size="18.6667"
       font-family="sans-serif"
       style="white-space: pre"
       xml:space="preserve"
       fill="#90CAF9"
       id="text1382"><tspan
         id="line-attach-illu-line1-right-txt"
         y="158.28799"
         x="634.47998">Liaison origine</tspan></text>
    <text
       letter-spacing="0em"
       font-weight="bold"
       font-size="18.6667"
       font-family="sans-serif"
       style="white-space: pre"
       xml:space="preserve"
       fill="#9DCC9F"
       id="text4625-9"><tspan
         x="531.31403"
         y="40.083401"
         id="line-attach-illu-voltage-level1-right-txt">Poste origine</tspan></text>
    <text
       letter-spacing="0em"
       font-weight="bold"
       font-size="18.6667"
       font-family="sans-serif"
       style="white-space: pre"
       xml:space="preserve"
       fill="#9DCC9F"
       id="text177_2"><tspan
         id="line-attach-illu-voltage-level2-left-txt"
         y="40.4165"
         x="284.078">Poste extrémité</tspan></text>
    <text
       letter-spacing="0em"
       font-size="18.6667"
       font-family="sans-serif"
       style="white-space: pre"
       xml:space="preserve"
       fill="#FFA4C2"
       id="text4625-2"><tspan
         id="line-to-attach-to-illu-txt"
         y="158.28799"
         x="171.15401">Liaison piquée</tspan></text>
    <text
       letter-spacing="0em"
       font-weight="bold"
       font-size="18.6667"
       font-family="sans-serif"
       style="white-space: pre"
       xml:space="preserve"
       fill="#9DCC9F"
       id="text4625"><tspan
         id="line-attach-illu-voltage-level1-left-txt"
         y="40.474602"
         x="51.419102">Poste origine</tspan></text>
  </g>
</svg>
